<?xml version="1.0" encoding="utf-8"?>
<!-- Generator: Adobe Illustrator 19.0.0, SVG Export Plug-In . SVG Version: 6.00 Build 0)  -->
<svg version="1.1" id="Layer_1" xmlns="http://www.w3.org/2000/svg" xmlns:xlink="http://www.w3.org/1999/xlink" x="0px" y="0px"
	 viewBox="-91 453 840 120" style="enable-background:new -91 453 840 120;" xml:space="preserve">
<g id="Layer_12">
	<g id="XMLID_89_">
		<rect id="XMLID_73_" x="709" y="453" style="display:none;fill:#FBF45B;" width="40" height="120"/>
		<g id="Layer_1_1_">
			<g id="XMLID_62_">
				<rect id="XMLID_6_" x="721.2" y="524" style="fill:#FBF45B;" width="15.7" height="15.7"/>
				<rect id="XMLID_4_" x="721.2" y="486.4" style="fill:#FBF45B;" width="15.7" height="15.7"/>
			</g>
		</g>
	</g>
</g>
<g id="Layer_1_2_">
	<g id="XMLID_160_">
		<rect id="XMLID_177_" x="309" y="453" style="display:none;fill:#FBF45B;" width="70" height="120"/>
		<g id="Layer_8_3_">
			<g id="XMLID_161_">
				<polygon id="XMLID_167_" style="fill:#FBF45B;" points="328.6,572.6 321.6,565.6 331.2,556.2 356.8,556.2 366.3,565.6 
					359.2,572.6 				"/>
				<polygon id="XMLID_166_" style="fill:#FBF45B;" points="361.4,551.5 361.4,525 378.1,516.8 378.1,554 370.9,561 				"/>
				<polygon id="XMLID_165_" style="fill:#FBF45B;" points="309.9,554 309.9,516.8 326.4,525 326.4,551.5 316.9,560.9 				"/>
				<polygon id="XMLID_164_" style="fill:#FBF45B;" points="330.9,520 316.5,512.8 331,503.6 357,503.6 371.4,512.8 357.1,520 				
					"/>
				<polygon id="XMLID_163_" style="fill:#FBF45B;" points="309.9,472.1 316.9,465.1 326.4,474.5 326.4,498.7 309.9,509 				"/>
				<polygon id="XMLID_162_" style="fill:#FBF45B;" points="331.2,469.9 321.6,460.4 328.6,453.4 359.2,453.4 366.3,460.5 
					356.8,469.9 				"/>
			</g>
		</g>
	</g>
</g>
<g id="Layer_11">
	<g id="XMLID_88_">
		<rect id="XMLID_72_" x="629" y="453" style="display:none;fill:#FBF45B;" width="70" height="120"/>
		<g id="Layer_11_1_">
			<g id="XMLID_61_">
				<polygon id="XMLID_8_" style="fill:#FBF45B;" points="648.7,572.6 641.7,565.6 651.3,556.2 676.9,556.2 686.4,565.6 
					679.3,572.6 				"/>
				<polygon id="XMLID_7_" style="fill:#FBF45B;" points="681.5,551.5 681.5,525 698.2,516.8 698.2,554 691,561 				"/>
				<polygon id="XMLID_5_" style="fill:#FBF45B;" points="630,554 630,516.8 646.5,525 646.5,551.5 637,560.9 				"/>
				<polygon id="XMLID_9_" style="fill:#FBF45B;" points="681.5,498.7 681.5,474.5 691,465.1 698.2,472.1 698.2,509 				"/>
				<polygon id="XMLID_10_" style="fill:#FBF45B;" points="630,472.1 637,465.1 646.5,474.5 646.5,498.7 630,509 				"/>
				<polygon id="XMLID_11_" style="fill:#FBF45B;" points="651.3,469.9 641.7,460.4 648.7,453.4 679.3,453.4 686.4,460.5 
					676.9,469.9 				"/>
			</g>
		</g>
	</g>
</g>
<g id="Layer_10">
	<g id="XMLID_127_">
		<rect id="XMLID_141_" x="549" y="453" style="display:none;fill:#FBF45B;" width="70" height="120"/>
		<g id="Layer_10_1_">
			<g id="XMLID_128_">
				<polygon id="XMLID_140_" style="fill:#FBF45B;" points="568.6,572.6 561.6,565.6 571.2,556.2 596.8,556.2 606.3,565.6 
					599.2,572.6 				"/>
				<polygon id="XMLID_133_" style="fill:#FBF45B;" points="601.4,551.5 601.4,525 618.1,516.8 618.1,554 610.9,561 				"/>
				<polygon id="XMLID_132_" style="fill:#FBF45B;" points="570.9,520 556.5,512.8 571,503.6 597,503.6 611.4,512.8 597.1,520 				
					"/>
				<polygon id="XMLID_131_" style="fill:#FBF45B;" points="601.4,498.7 601.4,474.5 610.9,465.1 618.1,472.1 618.1,509 				"/>
				<polygon id="XMLID_130_" style="fill:#FBF45B;" points="549.9,472.1 556.9,465.1 566.4,474.5 566.4,498.7 549.9,509 				"/>
				<polygon id="XMLID_129_" style="fill:#FBF45B;" points="571.2,469.9 561.6,460.4 568.6,453.4 599.2,453.4 606.3,460.5 
					596.8,469.9 				"/>
			</g>
		</g>
	</g>
</g>
<g id="Layer_9_1_">
	<g id="XMLID_86_">
		<rect id="XMLID_76_" x="469" y="453" style="display:none;fill:#FBF45B;" width="70" height="120"/>
		<g id="Layer_2">
			<g id="XMLID_59_">
				<polygon id="XMLID_21_" style="fill:#FBF45B;" points="488.6,572.6 481.6,565.6 491.2,556.2 516.8,556.2 526.3,565.6 
					519.2,572.6 				"/>
				<polygon id="XMLID_20_" style="fill:#FBF45B;" points="521.4,551.5 521.4,525 538.1,516.8 538.1,554 530.9,561 				"/>
				<polygon id="XMLID_19_" style="fill:#FBF45B;" points="469.9,554 469.9,516.8 486.4,525 486.4,551.5 476.9,560.9 				"/>
				<polygon id="XMLID_18_" style="fill:#FBF45B;" points="490.9,520 476.5,512.8 491,503.6 517,503.6 531.4,512.8 517.1,520 				
					"/>
				<polygon id="XMLID_22_" style="fill:#FBF45B;" points="521.4,498.7 521.4,474.5 530.9,465.1 538.1,472.1 538.1,509 				"/>
				<polygon id="XMLID_23_" style="fill:#FBF45B;" points="469.9,472.1 476.9,465.1 486.4,474.5 486.4,498.7 469.9,509 				"/>
				<polygon id="XMLID_24_" style="fill:#FBF45B;" points="491.2,469.9 481.6,460.4 488.6,453.4 519.2,453.4 526.3,460.5 
					516.8,469.9 				"/>
			</g>
		</g>
	</g>
</g>
<g id="Layer_8_1_">
	<g id="XMLID_87_">
		<rect id="XMLID_101_" x="389" y="453" style="display:none;fill:#FBF45B;" width="70" height="120"/>
		<g id="Layer_9_3_">
			<g id="XMLID_97_">
				<polygon id="XMLID_100_" style="fill:#FBF45B;" points="441.4,551.5 441.4,525 458.2,516.8 458.2,554 450.9,561 				"/>
				<polygon id="XMLID_99_" style="fill:#FBF45B;" points="441.4,498.7 441.4,474.5 450.9,465.1 458.2,472.1 458.2,509 				"/>
				<polygon id="XMLID_98_" style="fill:#FBF45B;" points="411.2,469.9 401.6,460.4 408.6,453.4 439.2,453.4 446.3,460.5 
					436.8,469.9 				"/>
			</g>
		</g>
	</g>
</g>
<g id="Layer_6_2_">
	<g id="XMLID_83_">
		<rect id="XMLID_78_" x="229" y="453" style="display:none;fill:#FBF45B;" width="70" height="120"/>
		<g id="Layer_7">
			<g id="XMLID_56_">
				<polygon id="XMLID_35_" style="fill:#FBF45B;" points="248.6,572.6 241.6,565.6 251.2,556.2 276.8,556.2 286.3,565.6 
					279.2,572.6 				"/>
				<polygon id="XMLID_34_" style="fill:#FBF45B;" points="281.4,551.5 281.4,525 298.1,516.8 298.1,554 290.9,561 				"/>
				<polygon id="XMLID_37_" style="fill:#FBF45B;" points="250.9,520 236.5,512.8 251,503.6 277,503.6 291.4,512.8 277.1,520 				
					"/>
				<polygon id="XMLID_38_" style="fill:#FBF45B;" points="229.9,472.1 236.9,465.1 246.4,474.5 246.4,498.7 229.9,509 				"/>
				<polygon id="XMLID_39_" style="fill:#FBF45B;" points="251.2,469.9 241.6,460.4 248.6,453.4 279.2,453.4 286.3,460.5 
					276.8,469.9 				"/>
			</g>
		</g>
	</g>
</g>
<g id="Layer_5_1_">
	<g id="XMLID_57_">
		<rect id="XMLID_66_" x="149" y="453" style="display:none;fill:#FBF45B;" width="70" height="120"/>
		<g id="Layer_6_1_">
			<g id="XMLID_58_">
				<polygon id="XMLID_65_" style="fill:#FBF45B;" points="201.3,559.7 201.3,527.5 218.1,517.6 218.1,562.7 210.8,571.1 				"/>
				<polygon id="XMLID_64_" style="fill:#FBF45B;" points="170.8,521.5 156.4,512.8 170.9,501.6 196.9,501.6 211.3,512.8 197,521.5 
									"/>
				<polygon id="XMLID_63_" style="fill:#FBF45B;" points="201.3,495.7 201.3,466.3 210.8,454.9 218.1,463.4 218.1,508.1 				"/>
				<polygon id="XMLID_60_" style="fill:#FBF45B;" points="149.8,463.4 156.9,454.9 166.3,466.3 166.3,495.7 149.8,508.1 				"/>
			</g>
		</g>
	</g>
</g>
<g id="Layer_4_1_">
	<g id="XMLID_82_">
		<rect id="XMLID_68_" x="69" y="453" style="display:none;fill:#FBF45B;" width="70" height="120"/>
		<g id="Layer_5">
			<g id="XMLID_52_">
				<polygon id="XMLID_44_" style="fill:#FBF45B;" points="88.6,572.6 81.6,565.6 91.2,556.2 116.8,556.2 126.3,565.6 119.2,572.6 
									"/>
				<polygon id="XMLID_43_" style="fill:#FBF45B;" points="121.4,551.5 121.4,525 138.1,516.8 138.1,554 130.9,561 				"/>
				<polygon id="XMLID_42_" style="fill:#FBF45B;" points="90.9,520 76.5,512.8 91,503.6 117,503.6 131.4,512.8 117.1,520 				"/>
				<polygon id="XMLID_41_" style="fill:#FBF45B;" points="121.4,498.7 121.4,474.5 130.9,465.1 138.1,472.1 138.1,509 				"/>
				<polygon id="XMLID_40_" style="fill:#FBF45B;" points="91.2,469.9 81.6,460.4 88.6,453.4 119.2,453.4 126.3,460.5 116.8,469.9 
									"/>
			</g>
		</g>
	</g>
</g>
<g id="Layer_3_1_">
	<g id="XMLID_25_">
		<rect id="XMLID_32_" x="-11" y="453" style="display:none;fill:#FBF45B;" width="70" height="120"/>
		<g id="Layer_4_3_">
			<g id="XMLID_26_">
				<polygon id="XMLID_31_" style="fill:#FBF45B;" points="8.6,572.6 1.6,565.6 11.2,556.2 36.8,556.2 46.3,565.6 39.2,572.6 				
					"/>
				<polygon id="XMLID_30_" style="fill:#FBF45B;" points="-10.1,554 -10.1,516.8 6.4,525 6.4,551.5 -3.1,560.9 				"/>
				<polygon id="XMLID_29_" style="fill:#FBF45B;" points="10.9,520 -3.5,512.8 11,503.6 37,503.6 51.4,512.8 37.1,520 				"/>
				<polygon id="XMLID_28_" style="fill:#FBF45B;" points="41.4,498.7 41.4,474.5 50.9,465.1 58.1,472.1 58.1,509 				"/>
				<polygon id="XMLID_27_" style="fill:#FBF45B;" points="11.2,469.9 1.6,460.4 8.6,453.4 39.2,453.4 46.3,460.5 36.8,469.9 				
					"/>
			</g>
		</g>
	</g>
</g>
<g id="Layer_2_1_">
	<g id="XMLID_80_">
		<rect id="XMLID_71_" x="-91" y="453" style="display:none;fill:#FBF45B;" width="70" height="120"/>
		<g id="Layer_3">
			<g id="XMLID_54_">
				<polygon id="XMLID_51_" style="fill:#FBF45B;" points="-90.1,559.7 -90.1,524.2 -73.3,513.5 -73.3,562.9 -80.6,572.1 				"/>
				<polygon id="XMLID_50_" style="fill:#FBF45B;" points="-90.4,493 -90.4,464.8 -80.9,453.9 -73.7,462.1 -73.7,504.8 				"/>
			</g>
		</g>
	</g>
</g>
</svg>
