<?xml version="1.0" encoding="utf-8"?>
<!-- Generator: Adobe Illustrator 21.1.0, SVG Export Plug-In . SVG Version: 6.00 Build 0)  -->
<svg version="1.1" id="图层_1" xmlns="http://www.w3.org/2000/svg" xmlns:xlink="http://www.w3.org/1999/xlink" x="0px" y="0px"
	 viewBox="0 0 1024 1024" style="enable-background:new 0 0 1024 1024;" xml:space="preserve">
<style type="text/css">
	.st0{fill:#EFB76D;}
	.st1{fill:url(#SVGID_1_);}
	.st2{fill:url(#SVGID_2_);}
	.st3{fill:url(#SVGID_3_);}
</style>
<polygon class="st0" points="951.3,661.7 72,661.1 72.1,642.3 951.3,642.9 "/>
<path class="st0" d="M181.3,534.2c15.6,16.1,29.1,32.7,30.4,34c-10.8,11.4-31.9,32.5-32.3,33c-17.5-20.5-38.7-42.6-30.4-34.1
	C158.9,556.5,171.4,544.9,181.3,534.2z"/>
<path class="st0" d="M136.5,576c-2.7,9.9-13,16.1-31,8.1c0,0,0,0,0-0.1c0.1-0.1,0.1-0.2,0,0c0,0,0,0,0,0c-0.1,0.1-0.2,0.2,0,0
	c0,0,0,0,0,0c5.1,12,10.9,8.4,23.8,13.2c0.6,0,1.1,0,1.7,0c0,1.1,0,2.3-0.1,3.4c-18.3,0-36.7,0-55,0c-0.3-1.4,0.3-2.9,0.1-4.3
	c12.7-1.3,20-0.8,25.1-12.5c-6,1.7-14.4,4.8-21.5,0.4c-4.1-2-5.7-4.6-7.6-8.7c2.2-18.5,23.6-29,31.7-44.1
	C111.2,538.9,139.1,566.1,136.5,576z"/>
<path class="st0" d="M808.4,538.7c2.9-1.7,8.7-3.6,11.2-4.1c7.7,0.4,13.5,3,16.2,8.9v0c2.9-5.8,8.7-8.2,16.4-8.3
	c2.6,0.6,8.2,2.7,11,4.5c18,17.4-14.1,34.8-23,52c-3.1,6.4-5.3,9.4-5.3,9.4s-2.1-3-5-9.5C821.4,573.9,789.8,555.5,808.4,538.7z"/>
<path class="st0" d="M889.4,560c5.2-3.1,9.8-2.2,15.5,1.2c0.3,0,0.6,0,0.9,0c-3.3-12.7-5.7-23.5,8.2-27.3c8.4-1.2,12.5-0.4,17.1,7.2
	c3.6,8.5,0.7,12.7-2.9,18.8c10.4,1.3,18.8-2.7,23.1,8.2c3,13.5-1.6,22-15,21.2c-5.7-0.4-10.6-3.4-12.7-9.7c-0.8-0.6-1.7-1.2-2.5-1.8
	c-3,0-2.3,5.5-1,10.3c3.6,8.4,11.9,11.2,24.7,10.8c0.3,0.6-0.3,2.9-0.1,3.4c-9.4-0.2-44.8-0.5-55.9-0.9c-0.3-1.1,0.3-2.4,0.1-3.5
	c17.5,1,26.7-6,26.9-16.7c-1.1-3.4-1.2-3.5-2.5-2.6c-5.9,5-7.1,14.1-25,7.3C877.3,579.8,881.6,565,889.4,560z"/>
<g>
	<g>
		<g>
			<path class="st0" d="M711.6,608.8h73.4c-0.5-18.2-0.8-31.8-0.8-40.9c-1.8-28.7-7.9-54.5-18.3-77.5c0,0,0-0.1,0-0.1
				c-7.9-18.9-18.9-34.4-31.1-47.1c-23.5-25.7-55.2-45.9-95.1-60.7c-1.8-1.3-2.4-2.5-1.9-3.8l123-138.7l-101.3,0.4
				c3.3,4.4,4.9,7.5,4.9,9.2c0,1.5-0.5,2.8-1.5,4L560.3,373.2l45,71.6c6.7,1.3,14.4,2.9,23.1,4.7c21.5,6.8,39,16.4,52.2,28.8
				c18.4,17.1,31.4,42,38.9,74.5c1.3,11.1,1.9,22.6,1.9,34.4c0,5.8-1.6,11-4.9,15.5C714.7,605,713.1,607,711.6,608.8z M542.2,261.6
				c0-4,1.1-8.1,3.4-12.1c2.3-4,4.2-7.2,5.7-9.4h-74.6l65.5,104.3L542.2,261.6L542.2,261.6z M542.2,542.7l-41.4-66.1h-19.9v110.7
				c0,5.8-1.5,11.1-4.5,15.9c-1.5,2-2.9,3.9-4.2,5.7h79c-6.1-7.6-9.1-14.7-9.1-21.5L542.2,542.7L542.2,542.7z M555.4,408.4
				l-13.2-21.1l-61.3-97.5l-41.2-65.7L209.4,608.8h87.3c-4.8-5.8-7.2-9.6-7.2-11.4c0-1,0.3-2,1-3l149.1-252.6l33.7,59.1h-53
				l-34.8,61.6h126.2l30.4,48.6l52.3,83.6c0.9,1,1.4,2,1.4,3c0,1.7-2.4,5.5-7.2,11.2h92.7L578.6,445.3L555.4,408.4z"/>
		</g>
	</g>
</g>
<g>
	<path class="st0" d="M172.3,798h-23.7l-7.6-23.4h-37.1L96.4,798H72.8l37.3-102h25.5L172.3,798z M135.8,757.9l-11.6-35.4
		c-0.7-2.2-1.3-5.2-1.6-8.9H122c-0.3,3-0.9,5.9-1.8,8.6l-11.7,35.6L135.8,757.9L135.8,757.9z"/>
	<path class="st0" d="M268.4,798h-27.5l-30.9-44.6c-0.8-1.1-1.7-2.9-2.7-5.3h-0.3V798h-21.7V696h21.7v48.2h0.3
		c1-2.1,1.9-3.9,2.9-5.5l29.2-42.7h25.9l-36.5,48.7L268.4,798z"/>
	<path class="st0" d="M362.5,696l-35.4,102h-24.6l-35-102H291l22.1,72.1c1.1,3.6,1.8,6.9,2,10.1h0.4c0.4-3.2,1.1-6.7,2.2-10.3
		l22.1-71.8L362.5,696L362.5,696z"/>
	<path class="st0" d="M405.4,713h-8.8v68.2h8.8V798h-39.1v-16.9h8.6V713h-8.6V696h39.1V713z"/>
	<path class="st0" d="M442,762.5V798h-21.7V696h35.1c25.4,0,38.1,10.8,38.1,32.3c0,10.4-3.8,18.8-11.5,25.1
		c-7.7,6.3-17.2,9.3-28.7,9.1H442z M442,712.9v32.9h9.4c12.8,0,19.2-5.6,19.2-16.7c0-10.8-6.3-16.3-19-16.3H442z"/>
	<path class="st0" d="M523.8,744.6c-11.8-4.9-17.6-12.7-17.6-23.4c0-8.1,3.2-14.6,9.6-19.5c6.4-4.9,14.3-7.4,23.7-7.4
		c9.5,0,17.3,2.3,23.4,6.9c6.1,4.6,9.2,10.8,9.2,18.5c0,11.2-6.4,19.4-19.3,24.8v0.3c6.9,2.1,12.3,5.4,16.2,10.1
		c3.8,4.7,5.8,10,5.8,15.9c0,9.3-3.4,16.4-10.2,21.4c-6.8,5-15.9,7.5-27.4,7.5c-9.9,0-18-2.5-24.4-7.5c-6.4-5-9.6-11.7-9.6-20.2
		c0-12.3,6.9-21.3,20.7-27.1L523.8,744.6L523.8,744.6z M538.1,753.2c-10,3.9-14.9,9.8-14.9,17.8c0,3.9,1.5,7.1,4.6,9.6
		c3.1,2.5,6.8,3.8,11.1,3.8c4.5,0,8.2-1.2,11.2-3.6c2.9-2.4,4.4-5.7,4.4-9.8C554.4,762.8,549,756.9,538.1,753.2z M551.8,721.6
		c0-3.6-1.2-6.5-3.5-8.6c-2.3-2.1-5.3-3.2-9.1-3.2c-3.6,0-6.6,1.1-9.1,3.3c-2.5,2.2-3.8,5.1-3.8,8.5c0,6.7,4.3,11.7,12.8,15.1
		C547.6,733.3,551.8,728.2,551.8,721.6z"/>
	<path class="st0" d="M586.9,788.5c0-3.3,1.3-6,3.8-8.1c2.5-2.1,5.5-3.2,9-3.2c3.5,0,6.5,1.1,8.9,3.2c2.4,2.2,3.6,4.8,3.6,8
		c0,3.4-1.2,6.1-3.6,8.2c-2.4,2.1-5.5,3.1-9.2,3.1c-3.4,0-6.4-1.1-8.8-3.2C588.1,794.4,586.9,791.7,586.9,788.5z"/>
	<path class="st0" d="M703.3,794.3c-7.4,3.6-17.1,5.5-29,5.5c-15.4,0-27.6-4.6-36.6-13.8c-9-9.2-13.5-21.5-13.5-36.8
		c0-16.1,5-29.3,15.1-39.5c10.1-10.2,23.1-15.4,39-15.4c10,0,18.3,1.3,25,3.9v21c-6.9-4-14.7-6.1-23.4-6.1c-10,0-17.9,3.2-23.9,9.5
		c-6,6.4-9,14.7-9,25c0,10,2.8,18.1,8.5,24.2s13.3,9.2,23,9.2c9.1,0,17.4-2.2,24.8-6.6L703.3,794.3L703.3,794.3z"/>
	<path class="st0" d="M713.2,748.4c0-16,4.7-29,14-39c9.3-10,21.7-15,37-15c14.6,0,26.3,4.9,35.2,14.6c8.9,9.7,13.3,22.2,13.3,37.4
		c0,15.9-4.6,28.8-13.9,38.7c-9.2,9.9-21.3,14.8-36.3,14.8c-14.6,0-26.5-4.8-35.6-14.4C717.8,775.8,713.2,763.5,713.2,748.4z
		 M736.1,747.2c0,9.9,2.4,18,7.2,24.3c4.8,6.3,11.3,9.4,19.7,9.4c8.5,0,15.1-3,19.9-9.1c4.7-6,7.1-14.1,7.1-24.3
		c0-10.6-2.3-19-6.9-25.2c-4.6-6.2-11.1-9.3-19.5-9.3c-8.5,0-15.2,3.2-20.1,9.5C738.5,729,736.1,737.1,736.1,747.2z"/>
	<path class="st0" d="M923.3,798v-61.9c0-5.7,0.3-12.9,0.9-21.5h-0.5c-1.3,6.5-2.4,10.9-3.2,13.1L895.3,798H878l-25.5-69.7
		c-0.6-1.7-1.7-6.3-3.2-13.8h-0.6c0.6,8.6,0.9,17.1,0.9,25.7V798H830V696h31.6l22,61.6c1.8,5.1,3.1,9.9,3.8,14.4h0.5
		c1.4-5.6,2.8-10.4,4.2-14.5L914,696h30.7v102H923.3z"/>
</g>
<linearGradient id="SVGID_1_" gradientUnits="userSpaceOnUse" x1="209.3868" y1="607.5136" x2="441.2666" y2="607.5136" gradientTransform="matrix(1 0 0 -1 0 1024)">
	<stop  offset="0.1774" style="stop-color:#EFB76D"/>
	<stop  offset="0.8333" style="stop-color:#D08342"/>
</linearGradient>
<path class="st1" d="M299.2,608.8c-4.6-5.9-6.9-9.7-6.9-11.5c0-1,0.3-2,1-3.1l148-251.6V224.2L209.4,608.8H299.2z"/>
<linearGradient id="SVGID_2_" gradientUnits="userSpaceOnUse" x1="480.6595" y1="494.9841" x2="542.2384" y2="494.9841" gradientTransform="matrix(1 0 0 -1 0 1024)">
	<stop  offset="0.1774" style="stop-color:#EFB76D"/>
	<stop  offset="0.8333" style="stop-color:#D08342"/>
</linearGradient>
<path class="st2" d="M542.2,582.2c0-0.4-0.1-0.8-0.1-1.2v-42.3l-41.6-62.9h-20v67.3C506.8,552.5,528.2,566.1,542.2,582.2z"/>
<linearGradient id="SVGID_3_" gradientUnits="userSpaceOnUse" x1="560.4678" y1="712.6892" x2="760.5526" y2="712.6892" gradientTransform="matrix(1 0 0 -1 0 1024)">
	<stop  offset="0" style="stop-color:#D08342"/>
	<stop  offset="0.8226" style="stop-color:#EFB76D"/>
</linearGradient>
<path class="st3" d="M637.8,379l122.8-140.6l-101.1,0.4c3.3,4.5,4.9,7.6,4.9,9.3c0,1.5-0.5,2.9-1.5,4.1L560.5,373.4l2.5,4
	c20.3,4.4,42.4,6.9,65.3,6.9c4.7,0,9.4-0.1,14-0.3c-0.9-0.3-1.7-0.7-2.6-1C637.9,381.6,637.3,380.3,637.8,379z"/>
</svg>
