<?xml version="1.0" standalone="no"?><!DOCTYPE svg PUBLIC "-//W3C//DTD SVG 1.1//EN" "http://www.w3.org/Graphics/SVG/1.1/DTD/svg11.dtd"><svg t="1535527954077" class="icon" style="" viewBox="0 0 1024 1024" version="1.1" xmlns="http://www.w3.org/2000/svg" p-id="1904" xmlns:xlink="http://www.w3.org/1999/xlink" width="200" height="200"><defs><style type="text/css"></style></defs><path d="M500.16 401.712v98.208h28.688q58.368 0 58.336-49.696 0-48.528-57.728-48.512z m385.904-127.408V73.168c0-40.416-33.44-73.168-74.688-73.168H213.968C172.8 0 139.296 32.752 139.296 73.168v201.136H0v457.136h139.296v219.424c0 40.384 33.44 73.136 74.672 73.136h597.408c41.248 0 74.688-32.752 74.688-73.136V731.44H1024V274.304zM811.376 91.456v182.848H213.984V91.456h597.392zM656.8 447.68q0 46.72-35.008 74.912t-87.536 27.024H500.16v106.08h-66.176V351.424h106.896q115.888 0 115.92 96.256z m-479.104 138.272l-22.864 69.744H83.04L196.8 351.424h77.76l111.504 304.272h-72.192l-23.264-69.744z m334.992 401.472a36.576 36.576 0 1 1 37.328-36.56 36.976 36.976 0 0 1-37.328 36.56z m298.688-109.712H213.968v-146.272h597.408v146.272z m71.728-355.2q-34.976 28.224-87.536 27.024h-34.08v106.08h-66.176V351.424h106.864q115.936 0 115.92 96.256 0 46.72-34.992 74.912z m-92.336-120.88h-29.28v98.208h28.656q58.336 0 58.368-49.696 0-48.528-57.744-48.512z m-555.904 2.16h-1.824a111.312 111.312 0 0 1-5.392 25.728l-35.52 106.272h82.832L239.68 430.4a113.824 113.824 0 0 1-4.8-26.528z" fill="#d81e06" p-id="1905"></path></svg>