<?xml version="1.0" encoding="utf-8"?>
<!-- Generator: Adobe Illustrator 21.1.0, SVG Export Plug-In . SVG Version: 6.00 Build 0)  -->
<svg version="1.1" id="图层_1" xmlns="http://www.w3.org/2000/svg" xmlns:xlink="http://www.w3.org/1999/xlink" x="0px" y="0px"
	 viewBox="0 0 200 200" style="enable-background:new 0 0 200 200;" xml:space="preserve">
<style type="text/css">
	.st0{fill:#FFD400;}
	.st1{fill:#FFFFFF;}
</style>
<path class="st0" d="M0,100c0,55.2,44.8,100,100,100s100-44.8,100-100S155.2,0,100,0S0,44.8,0,100z"/>
<path class="st1" d="M54.6,63.6c0,0,5.5-12.5,8.5-15.9c3-3.4,8.5-5.3,8.5-5.3s-4.4-2.4-5.5-6c-1.1-3.6-1.7-9.5-1.7-9.5
	s-4.1,5.7-6.3,7.4c-2.1,1.7-7.8,2.5-7.8,2.5s4.2,5.4,4.7,8.8C55.7,49,54.6,63.6,54.6,63.6z"/>
<path class="st1" d="M180.4,73.3c-1.4-3.6-5.5-5.3-9.1-3.9c-3.6,1.4-5.3,5.5-3.9,9.1c8.7,21.5,9.3,38.9-11,55.8l2.4-9
	c8-29.9-9.7-60.6-39.6-68.6c-29.9-8-60.6,9.7-68.6,39.6l-5.2,19.3C37.1,103.9,31,84.4,31,60c0-3.9-3.1-7-7-7S17,56.1,17,60
	c0,31.4,9.6,58.1,24.1,71.9L32.2,165C49.4,182.9,73.4,194,100,194c15.6,0,30.3-3.8,43.3-10.6l7.5-28.1
	C186.3,133.9,194.8,109,180.4,73.3z M82.8,90.3c-0.9,3.2-4.1,5.1-7.3,4.2c-3.2-0.9-5.1-4.1-4.2-7.3s4.1-5.1,7.3-4.3h0L94,87.1
	c1.1,0.3,1.7,1.4,1.4,2.4S94,91.2,92.9,91l-10-2.7C83,88.9,82.9,89.6,82.8,90.3z M91.2,127.6c-6.8-1.8-2-23.3-2-23.3l15.4,4.1
	C104.6,108.4,97.9,129.4,91.2,127.6z M137.9,100.9c-0.3,1.1-1.4,1.7-2.4,1.4l-10-2.7c0.1,0.7,0,1.3-0.2,2c-0.9,3.2-4.1,5.1-7.3,4.2
	c-3.2-0.9-5.1-4.1-4.2-7.3c0.9-3.2,4.1-5.1,7.3-4.3h0l15.5,4.1C137.5,98.8,138.2,99.9,137.9,100.9z"/>
</svg>
