<?xml version="1.0" standalone="no"?><!DOCTYPE svg PUBLIC "-//W3C//DTD SVG 1.1//EN" "http://www.w3.org/Graphics/SVG/1.1/DTD/svg11.dtd"><svg t="1545298006649" class="icon" style="" viewBox="0 0 1204 1024" version="1.1" xmlns="http://www.w3.org/2000/svg" p-id="4155" xmlns:xlink="http://www.w3.org/1999/xlink" width="150.5" height="128"><defs><style type="text/css"></style></defs><path d="M735.104862 91.904925c11.833834 5.781415 16.290341 20.957629 9.60558 33.243136-6.654649 12.978072-21.469525 18.759487-33.33347 12.978072-11.833834-5.751303-16.290341-20.927518-9.60558-33.213024 6.654649-13.008184 21.469525-18.759487 33.33347-13.008184zM121.762982 338.909857c-5.931973-12.285507-2.228254-25.986256 8.882903-31.767671 11.111157-5.781415 25.203356 0 31.135328 12.285507 5.901861 12.255395 2.228254 25.986256-8.882903 31.76767-11.141268 5.058738-24.450567 0-31.135328-12.285506z m670.37313 583.561571c-11.111157-5.781415-15.567664-20.234952-8.882903-32.490348 6.654649-12.285507 20.716737-18.066922 32.580682-12.285506 11.111157 5.781415 15.567664 20.204841 8.882903 32.490347-6.654649 12.285507-20.746848 18.066922-32.580682 12.285507zM636.579916 33.428322l-11.863945 24.540902c-14.062087 30.322317-37.759866 30.322317-52.574743 0.722677l-5.209295-10.117476a59.921957 59.921957 0 0 0-81.451706-25.986256L34.379304 250.080825a62.842776 62.842776 0 0 0-28.907075 82.32494l311.112392 656.521823c14.062087 30.322317 51.099277 43.330501 81.481817 29.59964l146.673293-66.45616c31.105217-13.700749 80.729029-13.008184 111.081457 1.445354l131.105628 63.565453a60.223072 60.223072 0 0 0 81.481817-27.461721L1198.03962 313.646278a61.066195 61.066195 0 0 0-28.154287-81.632375L717.308944 6.689278c-30.38254-15.146103-66.666941-2.890707-80.729028 26.739044zM109.17636 263.811685l340.742143-169.738729c30.352428-15.146103 76.272521-7.226769 92.592974 21.680306 16.290341 28.876963 20.716737 83.770294 5.901861 113.369934L298.818814 699.314833c-15.567664 29.59964-43.721951 27.431609-57.784037-2.890707l-167.420142-358.959623c-14.814876-29.59964 5.209296-59.19928 35.561725-73.652818z m232.581505 666.609188l-51.099277-114.845399c-14.062087-30.322317 11.863945-47.666562 42.216374-32.490347l166.667353 81.602263c30.38254 15.176214 24.450567 49.834592-6.65465 63.565453l-63.71601 27.431609c-43.691839 18.066922-66.666941 20.234952-87.41379-25.263579z m435.563371 23.095549l-383.711306-190.666247c-57.03125-27.431609-49.623812-57.061361-34.056147-86.661002L662.505949 99.131694c15.537553-29.59964 44.444627-50.557269 90.36472-25.986256l359.983415 183.439479c42.216374 17.344245 48.148346 41.16247 28.907075 81.602263l-288.167402 576.334802c-19.241272 44.053177-45.167304 54.170654-76.272521 38.99444z m104.426808-549.595759c-32.580682-2.890707-59.259503 0-60.734969-6.504092-0.752788-4.336061-2.228254-7.949446-3.703719-11.56283-8.882903-25.263579-27.401498-46.221208-52.604854-59.952068a118.18778 118.18778 0 0 0-53.32753-12.255395c-45.167304 0-88.889255 23.095548-108.130527 57.753926-59.259503 107.61863 53.327531 292.503463 58.506715 300.452908l2.981042 4.336061c1.475465 2.168031 6.654649 4.336061 11.111157 4.336062h8.130115c52.604854 0 227.402321-7.226769 280.729852-104.005246 29.629752-53.447977 27.431609-128.546148-27.401498-156.700435-15.537553-8.672122-35.561724-13.730861-55.555784-15.898891z m-130.352841 235.442102c-34.086259 3.613384-74.827167-19.512275-88.889254-49.834593-28.154286-62.842776-53.327531-148.058423-24.450568-200.061046 11.863945-21.650195 42.969162-38.271762 74.074379-38.271763 12.586622 0 24.450567 2.890707 34.808936 7.949446 16.290341 8.672122 28.876963 22.372871 34.808936 38.994439 2.981042 7.949446 3.703719 16.621568 3.703719 24.540902-0.722677 13.730861 0.752788 27.461721 9.635691 32.520459 9.635692 5.058738 24.450567-4.336061 40.740909-10.117476a92.201524 92.201524 0 0 1 31.105217-5.058738c19.271383 0 38.512655 4.336061 54.080319 12.285507 34.808936 18.03681 28.876963 74.375494 11.111157 106.143165-30.38254 54.170654-117.766218 73.682929-180.729441 80.909698z" fill="#f5534c" p-id="4156"></path></svg>