<?xml version="1.0" standalone="no"?><!DOCTYPE svg PUBLIC "-//W3C//DTD SVG 1.1//EN" "http://www.w3.org/Graphics/SVG/1.1/DTD/svg11.dtd"><svg t="1529482339054" class="icon" style="" viewBox="0 0 1024 1024" version="1.1" xmlns="http://www.w3.org/2000/svg" p-id="3895" xmlns:xlink="http://www.w3.org/1999/xlink" width="16" height="16"><defs><style type="text/css"></style></defs><path d="M908.8 1024 108.5696 1024C69.8112 1024 38.4 988.5696 38.4 950.8608L38.4 51.2C38.4 13.4912 50.8416 0 89.6 0L243.2 0 243.2 76.8 140.8 76.8C114.5856 76.8 115.2 108.5696 115.2 128 115.2 128 114.1504 894.6944 115.2 921.6 115.2 957.7728 121.856 947.2 140.8 947.2 151.8592 947.2512 883.2 947.2 883.2 947.2 901.4528 947.2 908.8 946.7392 908.8 921.6L908.8 102.4C908.8 84.1216 904.8832 76.8 883.2 76.8L780.8 76.8 780.8 0 934.4 0C973.1584 0 985.6 13.4912 985.6 51.2L985.6 947.2C985.6 984.9088 947.5584 1024 908.8 1024ZM806.4 691.2 217.6 691.2 217.6 614.4 806.4 614.4 806.4 691.2ZM217.6 358.4 806.4 358.4 806.4 435.2 217.6 435.2 217.6 358.4ZM371.2 0 652.8 0 652.8 76.8 371.2 76.8 371.2 0Z" p-id="3896" fill="#515151"></path></svg>