<?xml version="1.0" standalone="no"?><!DOCTYPE svg PUBLIC "-//W3C//DTD SVG 1.1//EN" "http://www.w3.org/Graphics/SVG/1.1/DTD/svg11.dtd"><svg t="1529482469702" class="icon" style="" viewBox="0 0 1024 1024" version="1.1" xmlns="http://www.w3.org/2000/svg" p-id="5198" xmlns:xlink="http://www.w3.org/1999/xlink" width="16" height="16"><defs><style type="text/css"></style></defs><path d="M825.05216 705.34144c52.05504-29.98784 83.9936-85.5808 83.9936-145.55136l-0.12288-236.1344a168.03328 168.03328 0 0 0-83.98848-145.4336L605.1328 51.2c-28.16-16.3328-59.61216-24.38144-91.1872-24.38144A183.2448 183.2448 0 0 0 422.7584 51.2L203.09504 177.98144C151.04 207.96928 119.10144 263.55712 119.10144 323.5328l0.12288 236.12928a168.02816 168.02816 0 0 0 83.9936 145.4336l29.01504 16.70144L144.09216 875.52l132.99712-22.19008 46.93504 124.34432 87.40352-152.13568 18.77504 10.84928c25.96352 14.99136 54.97856 22.54848 83.9936 22.54848s58.02496-7.56224 83.9936-22.54848l20.22912-11.70432 91.55072 154.45504 46.08-126.78144 131.42016 20.36224-89.85088-151.64928 27.43296-15.72864z m-492.0064 160.54784l-11.09504-29.50144-13.89568-36.81792-38.76352 6.46656-33.28 5.6064 37.30432-64.96768 96.67072 54.85056-36.9408 64.36352z m241.24416-71.07072c-18.2784 10.48064-39.00416 16.09216-60.09344 16.09216s-41.81504-5.61152-60.09856-16.09216l-18.77504-10.84928 0.12288-0.24576-38.64576-21.94432-169.56928-97.88928c-37.05856-21.32992-60.09856-61.18912-60.09856-103.98208l-0.12288-236.12928c0-42.78784 23.04-82.77504 60.09856-104.10496l219.6736-127.0272a133.99552 133.99552 0 0 1 67.16928-18.04288c23.53152 0 46.81216 6.21568 67.16928 18.04288l219.79648 126.90432c37.05344 21.33504 60.09344 61.19936 60.09344 103.9872l0.12288 236.12928c0 42.78272-23.04 82.77504-60.09856 104.10496l-226.74432 131.0464z m189.0816 10.12224l-38.89152-5.98016-13.40928 36.9408-11.58144 31.69792-38.15936-64.49152 95.45728-57.17504 37.79072 63.87712-31.2064-4.86912z" fill="" p-id="5199"></path><path d="M619.76576 326.94784l-29.25568-34.8672-76.43648 64-76.43648-64-29.25568 34.8672 70.21568 58.88H403.5072v45.47072h87.76704v45.5936h-77.7728v45.4656h77.7728v115.93216h45.5936v-115.93216h77.77792v-45.4656h-77.77792v-45.5936H624.64v-45.47072h-75.08992z" fill="" p-id="5200"></path></svg>