<?xml version="1.0" encoding="utf-8"?>
<!-- Generator: Adobe Illustrator 19.0.0, SVG Export Plug-In . SVG Version: 6.00 Build 0)  -->
<svg version="1.1" id="Layer_1" xmlns="http://www.w3.org/2000/svg" xmlns:xlink="http://www.w3.org/1999/xlink" x="0px" y="0px"
	 width="40px" height="48px" viewBox="0 0 40 48" style="enable-background:new 0 0 40 48;" xml:space="preserve">
<style type="text/css">
	.st0{fill:#FFC817;}
	.st1{fill:#37474F;}
	.st2{fill:#FFFFFF;}
	.st3{fill:#FF3B30;}
	.st4{fill:#DD2C00;}
</style>
<g id="XMLID_13_">
	<path id="XMLID_27_" class="st0" d="M19.7,41.6c0,2.1-3,3.7-6.8,3.7s-6.8-1.7-6.8-3.7s3-3.7,6.8-3.7S19.7,39.5,19.7,41.6z M27,37.8
		c-3.7,0-6.8,1.7-6.8,3.7s3,3.7,6.8,3.7s6.8-1.7,6.8-3.7S30.8,37.8,27,37.8L27,37.8z"/>
	<path id="XMLID_10_" class="st1" d="M34.9,23.6c0,0-0.5-0.5-1.1-1v-6c0-7.7-6.2-13.9-13.9-13.9S6.1,8.9,6.1,16.6v6
		c-0.5,0.5-1.1,1-1.1,1C4.2,24.9,2,28.4,2,31.8s0.9,3.9,1.2,3.9c0.3,0,1.5-0.3,2.9-2.4C8,39.5,13.5,44,20,44c6.5,0,12-4.5,13.9-10.8
		c1.4,2.1,2.6,2.5,2.9,2.4c0.3,0,1.2-0.6,1.2-3.9S35.8,24.9,34.9,23.6z"/>
	<path id="XMLID_20_" class="st2" d="M9.8,26c-0.1,0.8-0.2,1.6-0.2,2.4c0,7.6,4.7,13.7,10.5,13.7S30.7,36,30.7,28.4
		c0-0.8-0.1-1.6-0.2-2.4L9.8,26L9.8,26z M16.3,9.1c-1.5,0-2.8,1.7-2.8,3.8s1.3,3.8,2.8,3.8s2.8-1.7,2.8-3.8S17.9,9.1,16.3,9.1z
		 M16.8,14.4c-0.6,0-1-0.7-1-1.6c0-0.9,0.5-1.6,1-1.6c0.6,0,1,0.7,1,1.6C17.8,13.7,17.4,14.4,16.8,14.4z M23.7,9.1
		c-1.5,0-2.8,1.7-2.8,3.8s1.3,3.8,2.8,3.8c1.5,0,2.8-1.7,2.8-3.8C26.5,10.8,25.3,9.1,23.7,9.1z M24.2,13L24.2,13
		C24.2,13,24.2,13,24.2,13C24.2,13,24.2,13.1,24.2,13c-0.1,0.1-0.1,0.1-0.1,0l0,0v0c-0.2-0.4-0.5-0.7-0.9-0.7
		c-0.4,0-0.7,0.3-0.9,0.7l0,0l0,0c0,0,0,0-0.1,0c0,0-0.1,0-0.1-0.1c0,0,0,0,0,0c0,0,0,0,0,0l0,0c0,0,0-0.1,0-0.1
		c0-0.9,0.5-1.6,1-1.6c0.6,0,1,0.7,1,1.6C24.2,12.9,24.2,13,24.2,13L24.2,13z"/>
	<path id="XMLID_4_" class="st3" d="M9,25.2c-0.3,1.3-0.8,7-0.5,8.3c0.3,1.3,1.3,1.1,2.9,1.1c1.5,0,3.2,0.4,3.3-1.4
		c0-1.9,0-5.5,0.5-6.9C15.5,24.8,9,25.2,9,25.2L9,25.2z"/>
	<path id="XMLID_3_" class="st4" d="M8.7,27.9l6,1.9c0.1-1.5,0.2-2.9,0.4-3.7c0.4-1.4-6-1-6-1C8.9,25.7,8.8,26.7,8.7,27.9L8.7,27.9z
		"/>
	<path id="XMLID_2_" class="st0" d="M20,21.9c4.7,0,8.4-1.7,8.4-2.7c0-0.8-3.8-1.6-8.4-1.6c-4.7,0-8.4,0.7-8.4,1.6
		C11.6,20.2,15.4,21.9,20,21.9z"/>
	<path id="XMLID_1_" class="st3" d="M20.1,23c0,0,5.3,0.1,9.6-1.8c4.3-1.8,4.2-2,4.7-2s1,0.7,1.3,1.9c0.2,1.2,0.5,2.2-0.5,2.8
		c-1,0.6-7.5,4.4-14.9,4.4h-0.4C12.6,28.3,6,24.4,5,23.8c-1-0.6-0.7-1.5-0.5-2.8c0.2-1.2,0.8-1.9,1.3-1.9c0.5,0,0.4,0.2,4.7,2
		C14.8,23,20.1,23,20.1,23L20.1,23z"/>
</g>
</svg>
