<?xml version="1.0" standalone="no"?><!DOCTYPE svg PUBLIC "-//W3C//DTD SVG 1.1//EN" "http://www.w3.org/Graphics/SVG/1.1/DTD/svg11.dtd"><svg t="1527047196939" class="icon" style="" viewBox="0 0 1024 1024" version="1.1" xmlns="http://www.w3.org/2000/svg" p-id="2278" xmlns:xlink="http://www.w3.org/1999/xlink" width="200" height="200"><defs><style type="text/css"></style></defs><path d="M749.056 924.16c-144.896 84.992-324.096 85.504-470.016 2.56C133.12 843.264 42.496 688.64 41.984 520.704 40.96 352.256 130.048 196.608 274.944 112.128 419.84 27.136 599.04 26.624 744.96 109.568c145.92 83.456 236.544 238.08 237.056 406.016 1.024 168.448-88.064 324.096-232.96 408.576z" fill="#FFB358" p-id="2279"></path><path d="M832 477.696c5.632 0.512 24.064 2.56 24.064 2.56s12.288-14.336 16.384-18.944c4.096-4.608 6.656-2.56 8.192 3.072 1.024 5.632 4.608 23.552 4.608 23.552s19.968 8.704 24.576 10.752 4.096 4.608-1.024 7.168-22.016 12.288-22.016 12.288-2.048 19.968-2.048 25.088c-0.512 5.12-3.584 6.144-7.68 2.56s-18.432-16.896-18.432-16.896-22.016 5.12-26.112 6.144c-4.096 1.024-6.144-1.024-4.096-5.12 2.048-4.096 11.264-24.576 11.264-24.576s-9.216-15.36-12.8-20.992-0.512-7.68 5.12-6.656z" fill="#FFD800" p-id="2280"></path><path d="M582.144 79.36c15.36 48.128 67.072 208.896 67.072 208.896S810.496 336.384 865.28 353.28c54.784 16.896 47.104 46.592 4.096 77.824s-175.104 125.952-175.104 125.952 4.096 196.096 5.12 241.152-19.968 51.2-64.512 18.432-182.784-133.632-182.784-133.632-170.496 58.368-215.552 75.264c-45.056 16.896-64.512-7.168-48.64-54.784 15.872-47.616 69.632-211.456 69.632-211.456S135.68 331.776 112.64 301.056s-16.896-54.272 25.6-54.272 240.64 1.024 240.64 1.024S470.016 115.712 505.344 66.56s61.44-35.328 76.8 12.8z" fill="#FFFFFF" p-id="2281"></path><path d="M865.28 353.28c-45.568-13.824-163.84-49.664-203.264-61.44-86.528 123.904-220.672 203.264-411.136 220.16-14.848 45.568-50.688 154.112-62.976 191.488-15.872 47.616 3.584 71.168 48.64 54.784 45.056-16.896 215.552-75.264 215.552-75.264s138.24 101.376 182.784 133.632c44.544 32.768 65.536 26.624 64.512-18.432-1.024-45.056-5.12-241.152-5.12-241.152s132.096-95.232 175.104-125.952c42.496-31.232 50.688-60.928-4.096-77.824zM130.048 295.936s-11.264-14.848-27.648-35.84c-6.144 9.728-2.56 24.064 10.24 40.96 2.56 3.584 6.144 8.704 10.752 14.336 4.096-11.776 6.656-19.456 6.656-19.456z" fill="#FFF0DE" p-id="2282"></path><path d="M590.848 173.056s9.216 2.56 23.552 7.168c-12.8-39.936-25.6-80.384-32.256-100.352-8.704-26.624-20.48-43.008-35.328-43.52 19.968 61.952 44.032 136.704 44.032 136.704z" fill="#FFFFFF" p-id="2283"></path><path d="M865.28 353.28c-173.568 134.144-353.28 272.384-677.376 350.208-15.872 47.616 3.584 71.168 48.64 54.784 45.056-16.896 215.552-75.264 215.552-75.264s138.24 101.376 182.784 133.632c44.544 32.768 65.536 26.624 64.512-18.432-1.024-45.056-5.12-241.152-5.12-241.152s132.096-95.232 175.104-125.952c42.496-31.232 50.688-60.928-4.096-77.824z" fill="#FFE6D0" p-id="2284"></path><path d="M199.68 376.832s-50.688-66.048-92.672-121.856c-11.776 9.216-9.728 26.112 5.632 46.08 11.264 14.848 45.568 60.416 77.824 102.912 5.632-16.896 9.216-27.136 9.216-27.136z" fill="#FFFFFF" p-id="2285"></path><path d="M599.04 445.952l-111.616 203.264-133.632-49.152 162.304-196.608-131.072-43.52 22.528-70.144 235.52 71.68-44.032 84.48z" fill="#FF533D" p-id="2286"></path><path d="M296.96 663.04c2.048 20.992 8.704 91.648 8.704 91.648s61.952 34.304 82.944 46.08 14.848 23.552-5.632 32.256c-20.48 8.704-82.944 35.84-82.944 35.84s-15.872 80.896-19.456 99.328c-3.584 18.432-12.8 18.944-28.16 2.048s-62.976-71.68-62.976-71.68-75.264 8.704-95.232 11.264c-19.968 2.56-25.6-8.704-15.36-26.624s47.616-80.384 47.616-80.384-35.328-76.8-42.496-91.136-2.048-23.552 15.36-19.968c17.408 4.096 98.816 22.016 98.816 22.016s49.152-46.08 68.096-62.976 28.672-9.216 30.72 12.288z" fill="#FFED98" p-id="2287"></path><path d="M561.152 718.336c14.336 8.704 61.952 38.4 61.952 38.4s51.2-22.528 68.608-30.208 22.016 1.536 17.408 18.944-16.896 69.632-16.896 69.632 43.008 48.64 53.248 59.904c10.24 11.264 6.144 17.408-12.288 18.432-18.432 1.536-74.752 5.632-74.752 5.632s-30.208 51.2-38.4 65.024c-7.68 13.824-17.92 12.288-24.064-3.072-6.144-15.36-27.648-68.608-27.648-68.608s-65.024-14.336-77.824-16.896c-12.288-3.072-15.872-10.24-5.12-18.944 10.752-9.216 60.928-51.2 60.928-51.2s-5.632-52.736-7.168-72.704c-2.048-20.992 7.68-23.04 22.016-14.336z" fill="#FBE376" p-id="2288"></path><path d="M778.24 646.144c10.752 1.024 45.568 5.12 45.568 5.12s23.04-26.624 30.72-35.84c7.68-9.216 12.8-5.12 15.36 6.144 2.048 10.752 9.216 44.032 9.216 44.032s37.888 15.872 46.592 19.456 8.192 8.192-2.048 13.824-40.96 23.552-40.96 23.552-3.584 37.376-4.096 47.616c-0.512 10.24-6.656 11.776-14.336 4.608-7.68-7.168-34.304-31.232-34.304-31.232s-40.96 9.728-48.64 11.264c-7.68 1.536-11.776-1.536-8.192-9.728s20.992-45.568 20.992-45.568-17.408-28.672-23.552-39.424c-7.68-11.264-2.56-15.36 7.68-13.824z" fill="#FBE376" p-id="2289"></path></svg>