<?xml version="1.0" standalone="no"?><!DOCTYPE svg PUBLIC "-//W3C//DTD SVG 1.1//EN" "http://www.w3.org/Graphics/SVG/1.1/DTD/svg11.dtd"><svg t="1530772032434" class="icon" style="" viewBox="0 0 1024 1024" version="1.1" xmlns="http://www.w3.org/2000/svg" p-id="1951" xmlns:xlink="http://www.w3.org/1999/xlink" width="200" height="200"><defs><style type="text/css"></style></defs><path d="M621.226667 1022.293333c-6.826667 0-13.653333-1.706667-18.773334-5.12l-211.626666-124.586666c-11.946667-6.826667-18.773333-18.773333-18.773334-32.426667V559.786667L30.72 58.026667c-8.533333-10.24-8.533333-25.6-3.413333-37.546667C34.133333 6.826667 47.786667 0 61.44 0h909.653333c13.653333 0 27.306667 6.826667 32.426667 20.48 6.826667 11.946667 5.12 27.306667-1.706667 39.253333l-341.333333 501.76v424.96c0 13.653333-6.826667 25.6-18.773333 32.426667-8.533333 1.706667-13.653333 3.413333-20.48 3.413333zM447.146667 837.973333l136.533333 80.213334V547.84c0-6.826667 1.706667-15.36 6.826667-20.48L899.413333 75.093333h-768l308.906667 452.266667c5.12 6.826667 6.826667 13.653333 6.826667 20.48v290.133333z m0 0" p-id="1952"></path></svg>