<?xml version="1.0" encoding="utf-8"?>
<!-- Generator: Adobe Illustrator 21.1.0, SVG Export Plug-In . SVG Version: 6.00 Build 0)  -->
<svg version="1.1" id="图层_1" xmlns="http://www.w3.org/2000/svg" xmlns:xlink="http://www.w3.org/1999/xlink" x="0px" y="0px"
	 viewBox="0 0 1024 1024" style="enable-background:new 0 0 1024 1024;" xml:space="preserve">
<style type="text/css">
	.st0{fill:#CF0A2C;}
	.st1{fill:#002856;}
	.st2{fill:#007078;}
	.st3{fill-rule:evenodd;clip-rule:evenodd;fill:#FFFFFF;}
	.st4{fill:#FFFFFF;}
</style>
<g>
	<path class="st0" d="M244.3,236.8H464c30.7,0,49.7,25,42.6,55.8l-102.3,439c-7.2,30.7-37.9,55.7-68.6,55.7H116.1
		c-30.6,0-49.7-25-42.6-55.7l102.3-439C183,261.8,213.6,236.8,244.3,236.8z"/>
	<path class="st1" d="M445.7,236.8h252.6c30.7,0,16.8,25,9.6,55.8l-102.2,439c-7.2,30.7-4.9,55.7-35.7,55.7H317.4
		c-30.7,0-49.7-25-42.5-55.7l102.2-439C384.4,261.8,415,236.8,445.7,236.8z"/>
	<path class="st2" d="M688.3,236.8h219.6c30.7,0,49.8,25,42.6,55.8l-102.2,439c-7.2,30.7-37.9,55.7-68.6,55.7H560.1
		c-30.7,0-49.8-25-42.6-55.7l102.3-439C626.9,261.8,657.6,236.8,688.3,236.8z"/>
	<path class="st3" d="M651.6,649.7h20.7l5.9-19.9h-20.6L651.6,649.7z M668.2,594.8l-7.1,23.6c0,0,7.9-4,12.1-5.3
		c4.3-1,10.7-1.8,10.7-1.8l5-16.5H668.2 M678.5,560.9l-6.9,22.6c0,0,7.7-3.5,11.9-4.6c4.3-1.1,10.6-1.5,10.6-1.5l5-16.5H678.5
		 M724.3,560.9l-26.8,88.6h7.2l-5.6,18.3H692l-1.7,5.6h-25.5l1.7-5.6h-51.7l5.2-16.9h5.3l27.1-90l5.4-18.1h26l-2.7,9.1
		c0,0,6.9-5,13.5-6.7c6.5-1.7,44.2-2.4,44.2-2.4l-5.6,18H724.3"/>
	<path class="st4" d="M735.7,542.9h27.8l0.3,10.3c-0.2,1.8,1.3,2.6,4.6,2.6h5.6l-5.2,17.1h-15c-13,0.9-17.9-4.6-17.6-10.9
		L735.7,542.9z"/>
	<path class="st4" d="M739.4,623.8h-26.5l4.5-15.2h30.2l4.3-13.9h-29.8l5.1-17.1h83l-5.2,17.1h-27.9l-4.3,13.9h27.9l-4.6,15.2H766
		l-5.4,6.4h12.3l3,19.1c0.3,1.9,0.3,3.2,1,4c0.6,0.7,4.3,1,6.4,1h3.7l-5.7,18.6h-9.4c-1.4,0-3.6-0.1-6.6-0.2
		c-2.8-0.3-4.8-1.9-6.7-2.9c-1.7-0.8-4.3-2.9-4.9-6.5l-2.9-19.1L737,663.1c-4.3,6-10.2,10.5-20.2,10.5h-19.2l5-16.6h7.3
		c2.1,0,4-0.8,5.4-1.5c1.4-0.6,2.7-1.3,4.1-3.4L739.4,623.8z"/>
	<path class="st4" d="M449.8,582.2h70.1l-5.2,16.7h-28l-4.4,14.3H511l-5.2,17.2h-28.6l-7,23.2c-0.8,2.6,6.8,2.9,9.6,2.9l14.3-2
		l-5.8,19.1H456c-2.6,0-4.5-0.4-7.3-1c-2.7-0.7-3.9-1.9-5.1-3.7c-1.2-1.9-3-3.4-1.8-7.5l9.3-30.7h-15.9l5.3-17.5h16l4.2-14.3h-15.9
		L449.8,582.2z"/>
	<path class="st4" d="M496.9,552.2h28.7l-5.2,17.5h-39.3l-4.2,3.7c-1.8,1.8-2.5,1-4.9,2.3c-2.2,1.1-6.9,3.3-12.9,3.3h-12.6l5.1-16.8
		h3.8c3.2,0,5.4-0.3,6.5-1c1.3-0.8,2.7-2.6,4.2-5.5l7.3-13.1h28.5L496.9,552.2z"/>
	<path class="st3" d="M552,580.9c0,0,7.8-7.2,21.3-9.5c3.1-0.6,22.1-0.4,22.1-0.4l2.9-9.6h-40.4L552,580.9z M589.9,588.2h-40.1
		l-2.5,8.1h34.7c4.1-0.5,4.9,0.1,5.3-0.1L589.9,588.2 M538,542.9h24.5l-3.6,12.3c0,0,7.7-6.2,13.2-8.4c5.4-2,17.6-3.8,17.6-3.8
		l39.6-0.2l-13.5,44.9c-2.3,7.7-4.9,12.7-6.6,14.9c-1.5,2.3-3.2,4.3-6.7,6.1c-3.3,1.8-6.4,2.8-9.2,3.1c-2.6,0.2-6.6,0.3-12.2,0.3
		h-38.2l-10.7,35.5c-1,3.5-1.5,5.2-0.8,6.2c0.5,0.8,1.8,1.8,3.6,1.8l16.8-1.6l-5.8,19.5h-18.8c-6,0-10.4-0.1-13.4-0.4
		c-2.9-0.3-5.9,0-8-1.5c-1.7-1.5-4.4-3.6-4.3-5.7c0.2-1.9,1-5.1,2.2-9.5L538,542.9"/>
	<path class="st4" d="M609.3,615.4l-2.3,10.8c-1,3.4-1.8,5.9-4.3,8.1c-2.7,2.3-5.8,4.7-13.2,4.7l-13.6,0.6l-0.1,12.2
		c-0.1,3.4,0.8,3.1,1.3,3.6c0.6,0.6,1.2,0.9,1.8,1.1l4.3-0.3l13-0.7l-5.4,17.8H576c-10.4,0-18.2-0.3-20.7-2.2
		c-2.5-1.6-2.8-3.6-2.8-7l1-47.6h23.8l-0.3,9.7h5.7c2,0,3.3-0.2,4.1-0.7c0.7-0.5,1.3-1.3,1.6-2.5l2.4-7.6H609.3z"/>
	<path class="st4" d="M270.3,377c-0.8,3.9-16.1,74.2-16.1,74.3c-3.3,14.2-5.7,24.4-13.8,30.9c-4.6,3.8-10,5.6-16.2,5.6
		c-10,0-15.9-5-16.8-14.4l-0.2-3.2c0,0,3.1-19.1,3.1-19.2c0,0,16-64.1,18.9-72.5c0.1-0.5,0.2-0.7,0.2-1c-31.1,0.3-36.7,0-37-0.5
		c-0.2,0.7-1,4.7-1,4.7L175,453.8l-1.4,6.1l-2.7,20c0,5.9,1.2,10.8,3.5,14.9c7.4,13,28.7,15,40.7,15c15.5,0,30-3.3,39.8-9.3
		c17-10.1,21.5-25.8,25.5-39.8l1.8-7.2c0,0,16.5-66.5,19.3-75.2c0.1-0.5,0.1-0.7,0.3-1C279.1,377.7,272.4,377.5,270.3,377z"/>
	<path class="st4" d="M361.5,509.2c-11-0.2-15-0.2-27.9,0.5l-0.5-1c1.1-4.9,2.3-9.8,3.4-14.7l1.6-6.7c2.4-10.4,4.7-22.6,5-26.3
		c0.3-2.2,1-7.8-5.4-7.8c-2.7,0-5.5,1.3-8.3,2.6c-1.5,5.6-4.7,21.2-6.2,28.3c-3.2,15-3.4,16.7-4.8,24.1l-0.9,1
		c-11.4-0.2-15.3-0.2-28.4,0.5l-0.6-1.1c2.2-8.9,4.3-17.9,6.4-26.8c5.5-24.2,6.8-33.4,8.3-45.7l1.1-0.7c12.8-1.8,15.9-2.2,29.7-5
		l1.2,1.3l-2.1,7.7c2.4-1.4,4.6-2.8,7-4c6.5-3.2,13.8-4.2,17.8-4.2c6.1,0,12.7,1.7,15.5,8.7c2.6,6.3,0.9,13.9-2.6,29.1l-1.8,7.7
		c-3.5,16.8-4.1,19.9-6.1,31.5L361.5,509.2z"/>
	<path class="st4" d="M406.4,509.2c-6.7,0-11-0.2-15.1,0c-4.2,0-8.2,0.3-14.4,0.5l-0.3-0.5l-0.4-0.6c1.7-6.4,2.6-8.6,3.5-10.9
		c0.9-2.3,1.6-4.5,3.1-11c1.9-8.5,3.1-14.4,3.9-19.6c0.9-5,1.4-9.3,2.1-14.2l0.5-0.4l0.5-0.5c6.6-0.9,10.8-1.5,15.1-2.2
		c4.3-0.6,8.7-1.4,15.6-2.8l0.3,0.6l0.2,0.6c-1.3,5.2-2.6,10.5-3.8,15.8c-1.2,5.3-2.5,10.5-3.7,15.8c-2.5,11.1-3.5,15.3-4.1,18.3
		c-0.6,2.8-0.7,4.3-1.7,10.1l-0.6,0.5L406.4,509.2z"/>
	<path class="st4" d="M476.7,469.9c-0.5,2.9-3.1,13.5-6.4,18c-2.4,3.3-5.2,5.4-8.3,5.4c-0.9,0-6.4,0-6.5-8.1c0-4,0.8-8.1,1.8-12.6
		c2.9-12.9,6.3-23.7,15.1-23.7C479.2,448.9,479.7,457,476.7,469.9z M505.6,471.1c3.9-17,0.9-24.9-2.9-29.7
		c-5.8-7.4-15.9-9.7-26.5-9.7c-6.3,0-21.4,0.6-33.2,11.5c-8.5,7.8-12.4,18.5-14.7,28.7c-2.4,10.4-5.1,29.1,12.1,36.1
		c5.3,2.3,13,2.9,17.9,2.9c12.6,0,25.5-3.5,35.3-13.8C501,488.7,504.4,476.2,505.6,471.1"/>
	<path class="st4" d="M775.7,510.3c-13.3-0.1-17.2-0.1-29.5,0.4l-0.8-1c3.3-12.7,6.7-25.3,9.7-38.1c3.9-16.6,4.7-23.7,6-33.4l1-0.8
		c13.3-1.9,16.9-2.4,30.7-5l0.4,1.1c-2.5,10.5-5,20.9-7.5,31.3c-5.1,21.9-6.9,33-8.8,44.5L775.7,510.3z"/>
	<path class="st4" d="M755.7,471.3c-0.7,2.8-3.2,13.5-6.6,18c-2.3,3.2-7.6,5.2-10.7,5.2c-0.9,0-6.3,0-6.5-8c0-4,0.8-8.1,1.8-12.6
		c2.9-12.6,6.3-23.3,15.1-23.3C755.7,450.6,758.6,458.4,755.7,471.3z M782,472.6c3.9-16.9-11.8-1.5-14.2-7.1
		c-3.8-8.7-1.4-26.3-16.8-32.2c-5.9-2.3-19.7,0.7-31.6,11.5c-8.4,7.7-12.4,18.3-14.7,28.5c-2.4,10.2-5.2,29,12,35.6
		c5.5,2.3,10.4,3,15.3,2.8c17.2-0.9,30.3-26.9,40-37.2C779.5,466.4,780.9,477.6,782,472.6"/>
	<path class="st4" d="M581.1,509.2c-11.1-0.2-14.9-0.2-27.8,0.5l-0.5-1c1.1-4.9,2.4-9.8,3.5-14.7l1.5-6.7c2.4-10.4,4.7-22.6,5-26.3
		c0.3-2.2,1-7.8-5.3-7.8c-2.8,0-5.5,1.3-8.4,2.6c-1.5,5.6-4.7,21.2-6.3,28.3c-3.1,15-3.3,16.7-4.7,24.1l-1,1
		c-11.4-0.2-15.3-0.2-28.4,0.5l-0.6-1.1c2.2-8.9,4.3-17.9,6.4-26.8c5.5-24.2,6.8-33.4,8.3-45.7l1-0.7c12.8-1.8,15.9-2.2,29.7-5
		l1.1,1.3l-2,7.7c2.3-1.4,4.6-2.8,6.9-4c6.5-3.2,13.8-4.2,17.8-4.2c6,0,12.7,1.7,15.5,8.7c2.6,6.3,0.8,13.9-2.7,29.1l-1.7,7.7
		c-3.6,16.8-4.2,19.9-6.1,31.5L581.1,509.2z"/>
	<path class="st4" d="M676.8,376.9c-0.1,0-9.2,0.1-9.2,0.1c-23.9,0.3-33.5,0.2-37.4-0.3c-0.3,1.7-1,4.8-1,4.8s-8.6,39.7-8.6,39.7
		c0,0-20.5,84.3-21.4,88.3c20.8-0.3,29.4-0.3,33,0.1c0.8-4,5.6-27.5,5.7-27.5c0,0,4.1-17.3,4.4-17.9c0,0,1.3-1.8,2.6-2.5h1.9
		c18,0,38.3,0,54.2-11.7c10.8-8,18.2-19.9,21.5-34.3c0.9-3.5,1.5-7.7,1.5-11.9c0-5.5-1.1-11-4.3-15.2
		C711.6,377.2,695.4,377,676.8,376.9z M688.7,418.1c-1.9,8.8-7.7,16.2-15,19.8c-6,3-13.4,3.3-21.1,3.3h-4.9l0.4-2
		c0,0,9.1-39.6,9.1-39.4l0.3-2l0.1-1.5l3.6,0.4c0,0,18.8,1.6,19.2,1.7C687.8,401.1,690.8,408.5,688.7,418.1"/>
	<path class="st4" d="M884.8,432.3l-1.1-1.2c-13.6,2.8-16.1,3.2-28.6,4.9l-0.9,0.9c0,0.1-0.1,0.4-0.1,0.6l0-0.2
		c-9.3,21.5-9.1,16.9-16.6,33.8c0-0.8,0-1.3-0.1-2.1l-1.9-36.7l-1.2-1.2c-14.3,2.8-14.6,3.2-27.8,4.9l-1,0.9
		c-0.1,0.4-0.1,0.9-0.2,1.4l0.1,0.2c1.7,8.4,1.3,6.5,2.9,19.8c0.8,6.5,1.8,13.1,2.6,19.5c1.3,10.8,2,16.1,3.6,32.6
		c-8.9,14.7-11,20.3-19.6,33.2l0.5,1.2c12.9-0.5,15.9-0.5,25.4-0.5l2.1-2.4C829.9,526.4,884.8,432.3,884.8,432.3z"/>
	<path class="st4" d="M418.5,441.4c7.3-5.1,8.2-12.1,2.1-15.7c-6.2-3.7-17.2-2.5-24.5,2.6c-7.3,5-8.2,12-2,15.8
		C400.2,447.5,411.2,446.5,418.5,441.4z"/>
	<path class="st4" d="M821.7,543.3L811,561.6c-3.4,6.3-9.7,11-19.7,11l-17.1-0.3l5-16.5h3.3c1.7,0,3-0.1,4-0.6c0.9-0.3,1.5-1,2.2-2
		l6.3-10H821.7z"/>
</g>
</svg>
