<?xml version="1.0" standalone="no"?><!DOCTYPE svg PUBLIC "-//W3C//DTD SVG 1.1//EN" "http://www.w3.org/Graphics/SVG/1.1/DTD/svg11.dtd"><svg t="1529480594403" class="icon" style="" viewBox="0 0 1024 1024" version="1.1" xmlns="http://www.w3.org/2000/svg" p-id="1964" xmlns:xlink="http://www.w3.org/1999/xlink" width="16" height="16"><defs><style type="text/css"></style></defs><path d="M935.299307 64.784492l-260.031315 69.673849 71.02359 71.02359-231.66322 239.136426-169.355129-224.359884a31.5516 31.5516 0 0 0-23.116487-12.521175 32.534997 32.534997 0 0 0-24.578792 9.267061L97.075431 418.806481c-12.325723 12.399401-12.267395 32.441876 0.130983 44.768623 12.394285 12.331863 32.4429 12.273535 44.769646-0.125867l174.772512-175.899172 169.623236 224.730321a31.532157 31.532157 0 0 0 23.267936 12.530384c0.647753 0 1.295506 0.058328 1.992377 0.058329a31.66928 31.66928 0 0 0 22.716375-9.617032l256.661567-264.992303 74.613348 74.623581 69.675896-260.098853z m-499.864612 561.969065h152.308895V959.055872h-152.308895V626.753557z m320.336796-191.902658h152.308894V959.055872h-152.308894V434.850899z m-640.683824 125.631302h152.306848V959.055872H115.087667V560.482201z m0 0" p-id="1965" fill="#515151"></path></svg>